<?xml version="1.0" encoding="utf-8"?>
<!-- Generator: Adobe Illustrator 25.2.1, SVG Export Plug-In . SVG Version: 6.00 Build 0)  -->
<svg version="1.1" id="Слой_1" xmlns="http://www.w3.org/2000/svg" xmlns:xlink="http://www.w3.org/1999/xlink" x="0px" y="0px"
	 viewBox="0 0 1366 768" style="enable-background:new 0 0 1366 768;" xml:space="preserve">
<style type="text/css">
	.st0{fill:#2D85C5;}
	.st1{fill:#133F8A;}
	.st2{fill:#E11030;}
	.st3{fill:#266FA5;}
</style>
<path class="st0" d="M418.42,480.43l-67.25,4.45l67.21-4.52C418.39,480.38,418.4,480.41,418.42,480.43z"/>
<path class="st1" d="M403.38,252.47c-25.59,52-27.21,111.33-8.94,170.54l-129.68,8.71c-40.35-87.68-45.85-179.39-7.26-257.83
	c11.56-23.47,26.47-44.56,44.21-63.12l132.03,96.5C421.73,220.82,411.53,235.91,403.38,252.47z"/>
<path class="st0" d="M645.19,690.19c37.09,18.27,74.8,32.03,112.06,41.53l-3.12,28.94c-69.18-7.24-141.59-27.53-212.1-61.77
	l43.97-42.21C604.69,668.77,624.45,679.98,645.19,690.19z"/>
<path class="st2" d="M901.79,109.6l-34.18,53.62c-42.74-18.18-85.92-30.53-127.95-37.35l-23.62-95.95
	c42.53,10.91,85.44,26.71,127.65,47.47C863.9,87.34,883.29,98.1,901.79,109.6z"/>
<path class="st2" d="M1138.44,437.03c-29.21-91.77-106.03-182.98-215.21-245.98l15.68-56.03
	C1042.94,217.46,1123.24,334.94,1138.44,437.03z"/>
<path d="M697.37,160.93c51.38,3.71,101.42,16.88,148.01,37.18L829.7,222.7c-18.29-6.76-36.97-12.44-55.83-17.03
	c-25.85-6.09-52.15-10-78.44-11.29c-13.15-0.47-26.3-0.59-39.35,0.24c-13.03,0.94-26.03,2.21-38.74,4.76
	c-12.71,2.5-25.32,5.44-37.38,9.71c-12.09,4.21-23.8,9.29-34.88,15.32c-22,12.24-41.56,28.41-55.83,48.5
	c-14.27,20.03-23.77,43.47-26.82,68.18c-1.65,12.32-1.88,24.91-0.85,37.53c1.06,12.62,3.47,25.24,6.79,37.65
	c3.26,12.47,7.85,24.65,13.15,36.56c2.53,6.03,5.56,11.82,8.5,17.71c1.53,2.91,3.18,5.74,4.76,8.62c1.56,2.91,3.26,5.74,5.03,8.53
	c6.76,11.29,14.41,22.15,22.47,32.71l6.21,7.82c2.06,2.62,4.29,5.09,6.44,7.65c4.26,5.12,8.85,9.97,13.35,14.94
	c18.38,19.44,38.71,37.21,60.33,53.41c43.41,32.24,92.27,57.77,144.36,75.68c-54.24-10.38-106.39-32.09-154.06-61.44
	c-47.35-29.82-90.27-68.33-122.39-115.83c-2.03-2.94-4.03-5.91-5.88-9c-1.85-3.06-3.79-6.09-5.62-9.18
	c-3.5-6.29-7.12-12.53-10.24-19.06c-6.41-12.94-11.94-26.41-16.21-40.41c-4.26-13.97-7.65-28.38-9.21-43.15
	c-1.59-14.77-1.74-29.8-0.12-44.77c2.97-30.03,14.35-59.33,31.59-84.27c17.41-25.06,41.3-44.77,67.21-59.33
	c26.21-14.18,54.47-23.35,83.09-28.38C639.78,160.08,668.78,159.02,697.37,160.93z"/>
<path d="M1080.09,447l-4.06-9.5c-1.35-3.18-2.62-6.35-4.21-9.41c-3.09-6.12-5.97-12.32-9.53-18.15l-5-8.91l-5.53-8.62
	c-3.53-5.79-7.65-11.24-11.59-16.74c-16.12-21.82-34.38-41.94-54.59-59.8c-24.88-22.29-52.15-41.71-81.03-58.18l6.88-24.56
	c31.53,19.85,60.68,43.35,86.24,70.3c19.24,20.47,36.56,42.74,50.68,66.86c3.44,6.06,7.03,12.03,10,18.35L1063,398l4.12,9.59
	C1072.56,420.38,1076.71,433.65,1080.09,447z"/>
<g>
	<path class="st3" d="M800.83,387.14c33.72-94.53,86.66-176.89,120.18-270.52L800.83,387.14z"/>
	<path d="M763.34,372.76c5.21-3.26,12.25-3.86,18.21,1.07c11.68,9.68,22.7,19.96,32.23,31.79c5.37,6.67,10.35,14.2,17.06,19.49
		L921,116.62L763.34,372.76z"/>
</g>
<path d="M798.58,374.79c-41.38-15.62-85.33-1.79-98.21,30.85c-12.85,32.65,10.24,71.8,51.59,87.42
	c41.35,15.62,85.33,1.79,98.21-30.85C863.02,429.56,839.93,390.41,798.58,374.79z M815.52,449.12
	c-6.91,17.56-30.56,24.97-52.77,16.59c-22.24-8.41-34.68-29.44-27.74-47c6.91-17.53,30.53-24.97,52.77-16.56
	C810.02,410.53,822.43,431.59,815.52,449.12z"/>
<path class="st1" d="M682.91,141.39l-31.21-21.76c-65.84,1.67-125.54,18.14-172.02,48.37L348.17,71.88
	c78.18-52.39,187.51-71.98,304.1-54.86l8.65,35.12l16.65,67.59L682.91,141.39z"/>
<path class="st0" d="M537.56,621.69l-49.79,47.8C405.97,620.16,340.5,556.9,296.2,488.57l54.97-3.69l67.25-4.45l26.61-1.76
	l-16.86,19.15C454.57,542.15,491.65,584.57,537.56,621.69z"/>
</svg>
